<svg width="569" height="317" viewBox="0 0 569 317" fill="none" xmlns="http://www.w3.org/2000/svg">
<g clip-path="url(#clip0_59_6)">
<g clip-path="url(#clip1_59_6)">
<rect y="36" width="569" height="2" fill="#DADADA"/>
<path d="M8.05078 2.20312H9.65918V15H8.05078V5.13867L3.06738 15H1.4502V2.20312H3.06738V12.0645L8.05078 2.20312ZM17.5717 12.8467L20.1205 5.49023H22.0541V15H20.5072V8.44336L18.1078 15H17.0443L14.5922 8.28516V15H13.0453V5.49023H15.0492L17.5717 12.8467ZM31.3553 5.49023V15H29.7996V11.2998H27.9627L26.0467 15H24.3768L26.4334 11.0273C25.9178 10.8047 25.5252 10.4619 25.2557 9.99902C24.9861 9.53613 24.8514 9 24.8514 8.39062C24.8514 7.51758 25.1326 6.81738 25.6951 6.29004C26.2576 5.75684 27.0135 5.49023 27.9627 5.49023H31.3553ZM26.407 8.4082C26.407 8.87695 26.533 9.25488 26.785 9.54199C27.0369 9.82324 27.3768 9.96387 27.8045 9.96387H29.7996V6.80859H27.9451C27.4822 6.80859 27.1102 6.95801 26.8289 7.25684C26.5477 7.5498 26.407 7.93359 26.407 8.4082Z" fill="#00B2A0"/>
</g>
<rect y="106" width="569" height="2" fill="#DADADA"/>
<path d="M8.85938 75.5918H5.49316V87H3.88477V75.5918H0.527344V74.2031H8.85938V75.5918ZM13.6518 87.1758C12.4682 87.1758 11.56 86.8242 10.9271 86.1211C10.2943 85.4121 9.97207 84.375 9.96035 83.0098V81.8584C9.96035 80.4404 10.268 79.3301 10.8832 78.5273C11.5043 77.7188 12.3686 77.3145 13.476 77.3145C14.5893 77.3145 15.4213 77.6689 15.9721 78.3779C16.5229 79.0869 16.8041 80.1914 16.8158 81.6914V82.7109H11.5072V82.9307C11.5072 83.9502 11.6977 84.6914 12.0785 85.1543C12.4652 85.6172 13.0189 85.8486 13.7396 85.8486C14.1967 85.8486 14.598 85.7637 14.9438 85.5938C15.2953 85.418 15.6234 85.1426 15.9281 84.7676L16.7367 85.752C16.0629 86.7012 15.0346 87.1758 13.6518 87.1758ZM13.476 78.6504C12.8314 78.6504 12.3539 78.873 12.0434 79.3184C11.7328 79.7578 11.557 80.4434 11.516 81.375H15.2602V81.1641C15.2191 80.2617 15.0551 79.6172 14.768 79.2305C14.4867 78.8438 14.0561 78.6504 13.476 78.6504ZM25.9939 77.4902V87H24.4383V78.835H21.9334L21.784 82.0605C21.702 83.8477 21.4617 85.1162 21.0633 85.8662C20.6648 86.6104 20.0262 86.9883 19.1473 87H18.6287V85.5674L19.0242 85.5322C19.4578 85.4736 19.7625 85.1836 19.9383 84.6621C20.1199 84.1348 20.24 83.1006 20.2986 81.5596L20.448 77.4902H25.9939ZM32.465 87.1758C31.2814 87.1758 30.3732 86.8242 29.7404 86.1211C29.1076 85.4121 28.7854 84.375 28.7736 83.0098V81.8584C28.7736 80.4404 29.0812 79.3301 29.6965 78.5273C30.3176 77.7188 31.1818 77.3145 32.2893 77.3145C33.4025 77.3145 34.2346 77.6689 34.7854 78.3779C35.3361 79.0869 35.6174 80.1914 35.6291 81.6914V82.7109H30.3205V82.9307C30.3205 83.9502 30.5109 84.6914 30.8918 85.1543C31.2785 85.6172 31.8322 85.8486 32.5529 85.8486C33.01 85.8486 33.4113 85.7637 33.757 85.5938C34.1086 85.418 34.4367 85.1426 34.7414 84.7676L35.55 85.752C34.8762 86.7012 33.8479 87.1758 32.465 87.1758ZM32.2893 78.6504C31.6447 78.6504 31.1672 78.873 30.8566 79.3184C30.5461 79.7578 30.3703 80.4434 30.3293 81.375H34.0734V81.1641C34.0324 80.2617 33.8684 79.6172 33.5812 79.2305C33.3 78.8438 32.8693 78.6504 32.2893 78.6504ZM37.8199 82.4209C37.8199 80.8389 38.0777 79.5938 38.5934 78.6855C39.109 77.7715 39.8209 77.3145 40.7291 77.3145C41.1041 77.3145 41.4439 77.3789 41.7486 77.5078V73.5H43.3043V77.5605C43.6324 77.3965 44.0162 77.3145 44.4557 77.3145C45.3697 77.3145 46.0846 77.7686 46.6002 78.6768C47.1158 79.585 47.3736 80.8945 47.3736 82.6055C47.3736 84.0293 47.1158 85.1484 46.6002 85.9629C46.0846 86.7773 45.3756 87.1846 44.4732 87.1846C44.0279 87.1846 43.6383 87.1084 43.3043 86.9561V90.6562H41.7486V87C41.4264 87.123 41.0836 87.1846 40.7203 87.1846C39.818 87.1846 39.109 86.7744 38.5934 85.9541C38.0777 85.1279 37.8199 83.9502 37.8199 82.4209ZM45.8268 82.4209C45.8268 81.2256 45.6656 80.2998 45.3434 79.6436C45.0211 78.9814 44.567 78.6504 43.9811 78.6504C43.7291 78.6504 43.5035 78.6943 43.3043 78.7822V85.752C43.4859 85.8223 43.7174 85.8574 43.9986 85.8574C44.5787 85.8574 45.027 85.5762 45.3434 85.0137C45.6656 84.4512 45.8268 83.5869 45.8268 82.4209ZM39.3756 82.6055C39.3756 83.6836 39.5221 84.4951 39.815 85.04C40.1139 85.585 40.5504 85.8574 41.1246 85.8574C41.359 85.8574 41.567 85.8252 41.7486 85.7607V78.7559C41.5377 78.6855 41.3355 78.6504 41.1422 78.6504C40.5621 78.6504 40.1227 78.9697 39.8238 79.6084C39.525 80.2412 39.3756 81.2402 39.3756 82.6055ZM49.6963 81.8057C49.6963 80.4229 50.0303 79.3301 50.6982 78.5273C51.3721 77.7188 52.2598 77.3145 53.3613 77.3145C54.4629 77.3145 55.3477 77.707 56.0156 78.4922C56.6895 79.2773 57.0352 80.3467 57.0527 81.7002V82.7021C57.0527 84.0791 56.7188 85.1689 56.0508 85.9717C55.3828 86.7744 54.4922 87.1758 53.3789 87.1758C52.2773 87.1758 51.3926 86.7861 50.7246 86.0068C50.0625 85.2275 49.7197 84.1729 49.6963 82.8428V81.8057ZM51.252 82.7021C51.252 83.6807 51.4424 84.4512 51.8232 85.0137C52.21 85.5703 52.7285 85.8486 53.3789 85.8486C54.75 85.8486 55.4561 84.8584 55.4971 82.8779V81.8057C55.4971 80.833 55.3037 80.0654 54.917 79.5029C54.5303 78.9346 54.0117 78.6504 53.3613 78.6504C52.7227 78.6504 52.21 78.9346 51.8232 79.5029C51.4424 80.0654 51.252 80.8301 51.252 81.7969V82.7021ZM66.3363 87H64.7895V82.9395H61.3617V87H59.7973V77.4902H61.3617V81.6123H64.7895V77.4902H66.3363V87Z" fill="#00B2A0"/>
<rect y="315" width="569" height="2" fill="#DADADA"/>
<path d="M9.70312 172.727C9.70312 174.473 9.33105 175.817 8.58691 176.761C7.84277 177.704 6.78516 178.176 5.41406 178.176C4.0957 178.176 3.05273 177.719 2.28516 176.805C1.52344 175.885 1.12793 174.587 1.09863 172.911V170.503C1.09863 168.792 1.47656 167.453 2.23242 166.486C2.98828 165.514 4.04297 165.027 5.39648 165.027C6.74414 165.027 7.79297 165.493 8.54297 166.425C9.29883 167.351 9.68555 168.675 9.70312 170.397V172.727ZM8.09473 170.485C8.09473 169.132 7.87207 168.127 7.42676 167.471C6.9873 166.809 6.31055 166.478 5.39648 166.478C4.51172 166.478 3.84082 166.812 3.38379 167.479C2.93262 168.147 2.7041 169.132 2.69824 170.433V172.727C2.69824 174.033 2.92383 175.029 3.375 175.715C3.83203 176.4 4.51172 176.743 5.41406 176.743C6.31641 176.743 6.98438 176.427 7.41797 175.794C7.85156 175.161 8.07715 174.191 8.09473 172.885V170.485ZM15.8754 176.849C16.391 176.849 16.8041 176.69 17.1146 176.374C17.4252 176.052 17.5951 175.595 17.6244 175.003H19.0922C19.057 175.917 18.7318 176.676 18.1166 177.279C17.5072 177.877 16.7602 178.176 15.8754 178.176C14.6977 178.176 13.7982 177.807 13.1771 177.068C12.5619 176.324 12.2543 175.22 12.2543 173.755V172.709C12.2543 171.273 12.5619 170.184 13.1771 169.439C13.7924 168.689 14.6889 168.314 15.8666 168.314C16.8393 168.314 17.6098 168.622 18.1781 169.237C18.7523 169.853 19.057 170.693 19.0922 171.76H17.6244C17.5893 171.057 17.4193 170.529 17.1146 170.178C16.8158 169.826 16.3998 169.65 15.8666 169.65C15.1752 169.65 14.6625 169.879 14.3285 170.336C13.9945 170.787 13.8217 171.531 13.81 172.568V173.781C13.81 174.9 13.974 175.691 14.3021 176.154C14.6361 176.617 15.1605 176.849 15.8754 176.849ZM27.4969 169.809H24.9041V178H23.3572V169.809H20.7996V168.49H27.4969V169.809ZM34.4865 178C34.3928 177.795 34.3254 177.449 34.2844 176.963C33.7336 177.771 33.0305 178.176 32.175 178.176C31.3137 178.176 30.6398 177.936 30.1535 177.455C29.673 176.969 29.4328 176.286 29.4328 175.407C29.4328 174.44 29.7609 173.673 30.4172 173.104C31.0734 172.536 31.9729 172.246 33.1154 172.234H34.258V171.224C34.258 170.655 34.132 170.251 33.8801 170.011C33.6281 169.771 33.2443 169.65 32.7287 169.65C32.26 169.65 31.8791 169.791 31.5861 170.072C31.2932 170.348 31.1467 170.699 31.1467 171.127H29.591C29.591 170.641 29.7346 170.178 30.0217 169.738C30.3088 169.293 30.6955 168.944 31.1818 168.692C31.6682 168.44 32.2102 168.314 32.8078 168.314C33.7805 168.314 34.5187 168.558 35.0227 169.044C35.5324 169.524 35.7932 170.228 35.8049 171.153V175.952C35.8107 176.685 35.9104 177.32 36.1037 177.859V178H34.4865ZM32.4123 176.761C32.7932 176.761 33.1564 176.655 33.5021 176.444C33.8479 176.233 34.0998 175.97 34.258 175.653V173.386H33.3791C32.6408 173.397 32.0578 173.564 31.6301 173.887C31.2023 174.203 30.9885 174.648 30.9885 175.223C30.9885 175.762 31.0969 176.154 31.3137 176.4C31.5305 176.641 31.8967 176.761 32.4123 176.761ZM38.9625 178V168.49H42.1529C43.2428 168.49 44.0748 168.713 44.649 169.158C45.2232 169.604 45.5104 170.251 45.5104 171.101C45.5104 171.54 45.3961 171.936 45.1676 172.287C44.9391 172.639 44.6051 172.908 44.1656 173.096C44.652 173.225 45.0416 173.485 45.3346 173.878C45.6334 174.271 45.7828 174.745 45.7828 175.302C45.7828 176.181 45.5074 176.852 44.9566 177.314C44.4117 177.771 43.6383 178 42.6363 178H38.9625ZM40.5094 173.825V176.69H42.6539C43.7027 176.69 44.2271 176.21 44.2271 175.249C44.2271 174.3 43.6969 173.825 42.6363 173.825H40.5094ZM40.5094 172.524H42.1354C43.3482 172.524 43.9547 172.079 43.9547 171.188C43.9547 170.292 43.3834 169.832 42.2408 169.809H40.5094V172.524ZM50.1797 171.769H52.1396C53.0479 171.774 53.7715 172.053 54.3105 172.604C54.8496 173.154 55.1191 173.904 55.1191 174.854C55.1191 175.803 54.8467 176.564 54.3018 177.139C53.7568 177.707 53.0361 177.994 52.1396 178H48.6328V168.49H50.1797V171.769ZM50.1797 173.096V176.673H52.1133C52.5703 176.673 52.9248 176.518 53.1768 176.207C53.4346 175.896 53.5635 175.466 53.5635 174.915C53.5635 174.376 53.4375 173.939 53.1855 173.605C52.9336 173.271 52.5879 173.102 52.1484 173.096H50.1797ZM63.102 169.809H60.5092V178H58.9623V169.809H56.4047V168.49H63.102V169.809ZM68.035 178.176C66.8514 178.176 65.9432 177.824 65.3104 177.121C64.6775 176.412 64.3553 175.375 64.3436 174.01V172.858C64.3436 171.44 64.6512 170.33 65.2664 169.527C65.8875 168.719 66.7518 168.314 67.8592 168.314C68.9725 168.314 69.8045 168.669 70.3553 169.378C70.9061 170.087 71.1873 171.191 71.199 172.691V173.711H65.8904V173.931C65.8904 174.95 66.0809 175.691 66.4617 176.154C66.8484 176.617 67.4021 176.849 68.1229 176.849C68.5799 176.849 68.9813 176.764 69.327 176.594C69.6785 176.418 70.0066 176.143 70.3113 175.768L71.1199 176.752C70.4461 177.701 69.4178 178.176 68.035 178.176ZM67.8592 169.65C67.2146 169.65 66.7371 169.873 66.4266 170.318C66.116 170.758 65.9402 171.443 65.8992 172.375H69.6434V172.164C69.6023 171.262 69.4383 170.617 69.1512 170.23C68.8699 169.844 68.4393 169.65 67.8592 169.65ZM81.7066 176.849C82.2223 176.849 82.6354 176.69 82.9459 176.374C83.2564 176.052 83.4264 175.595 83.4557 175.003H84.9234C84.8883 175.917 84.5631 176.676 83.9479 177.279C83.3385 177.877 82.5914 178.176 81.7066 178.176C80.5289 178.176 79.6295 177.807 79.0084 177.068C78.3932 176.324 78.0855 175.22 78.0855 173.755V172.709C78.0855 171.273 78.3932 170.184 79.0084 169.439C79.6236 168.689 80.5201 168.314 81.6979 168.314C82.6705 168.314 83.441 168.622 84.0094 169.237C84.5836 169.853 84.8883 170.693 84.9234 171.76H83.4557C83.4205 171.057 83.2506 170.529 82.9459 170.178C82.6471 169.826 82.2311 169.65 81.6979 169.65C81.0064 169.65 80.4938 169.879 80.1598 170.336C79.8258 170.787 79.6529 171.531 79.6412 172.568V173.781C79.6412 174.9 79.8053 175.691 80.1334 176.154C80.4674 176.617 80.9918 176.849 81.7066 176.849ZM86.9912 172.806C86.9912 171.423 87.3252 170.33 87.9932 169.527C88.667 168.719 89.5547 168.314 90.6562 168.314C91.7578 168.314 92.6426 168.707 93.3105 169.492C93.9844 170.277 94.3301 171.347 94.3477 172.7V173.702C94.3477 175.079 94.0137 176.169 93.3457 176.972C92.6777 177.774 91.7871 178.176 90.6738 178.176C89.5723 178.176 88.6875 177.786 88.0195 177.007C87.3574 176.228 87.0146 175.173 86.9912 173.843V172.806ZM88.5469 173.702C88.5469 174.681 88.7373 175.451 89.1182 176.014C89.5049 176.57 90.0234 176.849 90.6738 176.849C92.0449 176.849 92.751 175.858 92.792 173.878V172.806C92.792 171.833 92.5986 171.065 92.2119 170.503C91.8252 169.935 91.3066 169.65 90.6562 169.65C90.0176 169.65 89.5049 169.935 89.1182 170.503C88.7373 171.065 88.5469 171.83 88.5469 172.797V173.702ZM96.6264 172.806C96.6264 171.423 96.9604 170.33 97.6283 169.527C98.3021 168.719 99.1898 168.314 100.291 168.314C101.393 168.314 102.278 168.707 102.946 169.492C103.62 170.277 103.965 171.347 103.983 172.7V173.702C103.983 175.079 103.649 176.169 102.981 176.972C102.313 177.774 101.422 178.176 100.309 178.176C99.2074 178.176 98.3227 177.786 97.6547 177.007C96.9926 176.228 96.6498 175.173 96.6264 173.843V172.806ZM98.182 173.702C98.182 174.681 98.3725 175.451 98.7533 176.014C99.14 176.57 99.6586 176.849 100.309 176.849C101.68 176.849 102.386 175.858 102.427 173.878V172.806C102.427 171.833 102.234 171.065 101.847 170.503C101.46 169.935 100.942 169.65 100.291 169.65C99.6527 169.65 99.14 169.935 98.7533 170.503C98.3725 171.065 98.182 171.83 98.182 172.797V173.702ZM110.208 169.035C111.21 169.035 112.007 169.434 112.598 170.23C113.19 171.021 113.486 172.082 113.486 173.412V173.544C113.486 174.95 113.158 176.075 112.502 176.919C111.846 177.757 110.978 178.176 109.9 178.176C108.822 178.176 107.955 177.751 107.299 176.901C106.642 176.052 106.314 174.909 106.314 173.474V172.674C106.314 170.711 106.622 169.141 107.237 167.963C107.852 166.779 108.755 166.05 109.944 165.774C110.63 165.616 111.093 165.429 111.333 165.212C111.579 164.995 111.702 164.708 111.702 164.351H112.959L112.95 164.693C112.88 165.854 112.323 166.589 111.28 166.899L110.208 167.198C109.434 167.409 108.84 167.781 108.424 168.314C108.013 168.848 107.747 169.545 107.624 170.406C108.339 169.492 109.2 169.035 110.208 169.035ZM109.891 170.371C109.27 170.371 108.778 170.635 108.415 171.162C108.057 171.689 107.879 172.483 107.879 173.544C107.879 174.575 108.057 175.387 108.415 175.979C108.772 176.564 109.267 176.857 109.9 176.857C110.533 176.857 111.031 176.562 111.394 175.97C111.758 175.378 111.939 174.502 111.939 173.342C111.939 172.428 111.755 171.704 111.386 171.171C111.022 170.638 110.524 170.371 109.891 170.371ZM117.356 168.49V176.673H120.036V168.49H121.583V176.673H124.273V168.49H125.828V176.673H127.015L126.857 180.821H125.477V178H115.791V168.49H117.356ZM132.862 178.176C131.678 178.176 130.77 177.824 130.137 177.121C129.504 176.412 129.182 175.375 129.171 174.01V172.858C129.171 171.44 129.478 170.33 130.093 169.527C130.714 168.719 131.579 168.314 132.686 168.314C133.799 168.314 134.631 168.669 135.182 169.378C135.733 170.087 136.014 171.191 136.026 172.691V173.711H130.717V173.931C130.717 174.95 130.908 175.691 131.289 176.154C131.675 176.617 132.229 176.849 132.95 176.849C133.407 176.849 133.808 176.764 134.154 176.594C134.505 176.418 134.834 176.143 135.138 175.768L135.947 176.752C135.273 177.701 134.245 178.176 132.862 178.176ZM132.686 169.65C132.042 169.65 131.564 169.873 131.254 170.318C130.943 170.758 130.767 171.443 130.726 172.375H134.47V172.164C134.429 171.262 134.265 170.617 133.978 170.23C133.697 169.844 133.266 169.65 132.686 169.65ZM145.178 178H143.631V173.939H140.203V178H138.639V168.49H140.203V172.612H143.631V168.49H145.178V178ZM153.398 168.49H154.945V178H153.398V171.065L149.953 178H148.397V168.49H149.953V175.434L153.398 168.49ZM161.433 178.176C160.25 178.176 159.342 177.824 158.709 177.121C158.076 176.412 157.754 175.375 157.742 174.01V172.858C157.742 171.44 158.05 170.33 158.665 169.527C159.286 168.719 160.15 168.314 161.258 168.314C162.371 168.314 163.203 168.669 163.754 169.378C164.304 170.087 164.586 171.191 164.597 172.691V173.711H159.289V173.931C159.289 174.95 159.479 175.691 159.86 176.154C160.247 176.617 160.801 176.849 161.521 176.849C161.978 176.849 162.38 176.764 162.725 176.594C163.077 176.418 163.405 176.143 163.71 175.768L164.518 176.752C163.845 177.701 162.816 178.176 161.433 178.176ZM161.258 169.65C160.613 169.65 160.136 169.873 159.825 170.318C159.514 170.758 159.339 171.443 159.298 172.375H163.042V172.164C163.001 171.262 162.837 170.617 162.55 170.23C162.268 169.844 161.838 169.65 161.258 169.65ZM167.087 180.549L166.164 179.916C166.715 179.148 167.002 178.357 167.026 177.543V176.075H168.616V177.35C168.616 177.941 168.47 178.533 168.177 179.125C167.89 179.717 167.527 180.191 167.087 180.549ZM181.075 168.49H182.622V178H181.075V171.065L177.63 178H176.074V168.49H177.63V175.434L181.075 168.49ZM195.107 175.847L197.656 168.49H199.59V178H198.043V171.443L195.643 178H194.58L192.128 171.285V178H190.581V168.49H192.585L195.107 175.847ZM204.364 171.769H206.324C207.233 171.774 207.956 172.053 208.495 172.604C209.034 173.154 209.304 173.904 209.304 174.854C209.304 175.803 209.031 176.564 208.487 177.139C207.942 177.707 207.221 177.994 206.324 178H202.818V168.49H204.364V171.769ZM212.204 178H210.649V168.49H212.204V178ZM204.364 173.096V176.673H206.298C206.755 176.673 207.11 176.518 207.362 176.207C207.619 175.896 207.748 175.466 207.748 174.915C207.748 174.376 207.622 173.939 207.37 173.605C207.118 173.271 206.773 173.102 206.333 173.096H204.364ZM4.46484 194.849C4.98047 194.849 5.39355 194.69 5.7041 194.374C6.01465 194.052 6.18457 193.595 6.21387 193.003H7.68164C7.64648 193.917 7.32129 194.676 6.70605 195.279C6.09668 195.877 5.34961 196.176 4.46484 196.176C3.28711 196.176 2.3877 195.807 1.7666 195.068C1.15137 194.324 0.84375 193.22 0.84375 191.755V190.709C0.84375 189.273 1.15137 188.184 1.7666 187.439C2.38184 186.689 3.27832 186.314 4.45605 186.314C5.42871 186.314 6.19922 186.622 6.76758 187.237C7.3418 187.853 7.64648 188.693 7.68164 189.76H6.21387C6.17871 189.057 6.00879 188.529 5.7041 188.178C5.40527 187.826 4.98926 187.65 4.45605 187.65C3.76465 187.65 3.25195 187.879 2.91797 188.336C2.58398 188.787 2.41113 189.531 2.39941 190.568V191.781C2.39941 192.9 2.56348 193.691 2.8916 194.154C3.22559 194.617 3.75 194.849 4.46484 194.849ZM10.2152 196V186.49H13.4057C14.4955 186.49 15.3275 186.713 15.9018 187.158C16.476 187.604 16.7631 188.251 16.7631 189.101C16.7631 189.54 16.6488 189.936 16.4203 190.287C16.1918 190.639 15.8578 190.908 15.4184 191.096C15.9047 191.225 16.2943 191.485 16.5873 191.878C16.8861 192.271 17.0355 192.745 17.0355 193.302C17.0355 194.181 16.7602 194.852 16.2094 195.314C15.6645 195.771 14.891 196 13.8891 196H10.2152ZM11.7621 191.825V194.69H13.9066C14.9555 194.69 15.4799 194.21 15.4799 193.249C15.4799 192.3 14.9496 191.825 13.8891 191.825H11.7621ZM11.7621 190.524H13.3881C14.601 190.524 15.2074 190.079 15.2074 189.188C15.2074 188.292 14.6361 187.832 13.4936 187.809H11.7621V190.524ZM25.9588 186.49V196H24.4031V192.3H22.5662L20.6502 196H18.9803L21.0369 192.027C20.5213 191.805 20.1287 191.462 19.8592 190.999C19.5896 190.536 19.4549 190 19.4549 189.391C19.4549 188.518 19.7361 187.817 20.2986 187.29C20.8611 186.757 21.617 186.49 22.5662 186.49H25.9588ZM21.0105 189.408C21.0105 189.877 21.1365 190.255 21.3885 190.542C21.6404 190.823 21.9803 190.964 22.408 190.964H24.4031V187.809H22.5486C22.0857 187.809 21.7137 187.958 21.4324 188.257C21.1512 188.55 21.0105 188.934 21.0105 189.408ZM35.4885 191.869H34.5832V196H33.0363V191.869H32.1311L30.1447 196H28.1936L30.927 191.043L28.4309 186.49H30.3029L32.1486 190.428H33.0363V186.49H34.5832V190.428H35.4533L37.3254 186.49H39.1975L36.6926 191.052L39.426 196H37.466L35.4885 191.869ZM44.7721 196.176C43.5885 196.176 42.6803 195.824 42.0475 195.121C41.4146 194.412 41.0924 193.375 41.0807 192.01V190.858C41.0807 189.44 41.3883 188.33 42.0035 187.527C42.6246 186.719 43.4889 186.314 44.5963 186.314C45.7096 186.314 46.5416 186.669 47.0924 187.378C47.6432 188.087 47.9244 189.191 47.9361 190.691V191.711H42.6275V191.931C42.6275 192.95 42.818 193.691 43.1988 194.154C43.5855 194.617 44.1393 194.849 44.86 194.849C45.317 194.849 45.7184 194.764 46.0641 194.594C46.4156 194.418 46.7438 194.143 47.0484 193.768L47.857 194.752C47.1832 195.701 46.1549 196.176 44.7721 196.176ZM44.5963 187.65C43.9518 187.65 43.4742 187.873 43.1637 188.318C42.8531 188.758 42.6773 189.443 42.6363 190.375H46.3805V190.164C46.3395 189.262 46.1754 188.617 45.8883 188.23C45.607 187.844 45.1764 187.65 44.5963 187.65ZM55.0752 193.847L57.624 186.49H59.5576V196H58.0107V189.443L55.6113 196H54.5479L52.0957 189.285V196H50.5488V186.49H52.5527L55.0752 193.847ZM65.9496 194.849C66.4652 194.849 66.8783 194.69 67.1889 194.374C67.4994 194.052 67.6693 193.595 67.6986 193.003H69.1664C69.1312 193.917 68.8061 194.676 68.1908 195.279C67.5814 195.877 66.8344 196.176 65.9496 196.176C64.7719 196.176 63.8725 195.807 63.2514 195.068C62.6361 194.324 62.3285 193.22 62.3285 191.755V190.709C62.3285 189.273 62.6361 188.184 63.2514 187.439C63.8666 186.689 64.7631 186.314 65.9408 186.314C66.9135 186.314 67.684 186.622 68.2523 187.237C68.8266 187.853 69.1312 188.693 69.1664 189.76H67.6986C67.6635 189.057 67.4936 188.529 67.1889 188.178C66.89 187.826 66.474 187.65 65.9408 187.65C65.2494 187.65 64.7367 187.879 64.4027 188.336C64.0687 188.787 63.8959 189.531 63.8842 190.568V191.781C63.8842 192.9 64.0482 193.691 64.3764 194.154C64.7104 194.617 65.2348 194.849 65.9496 194.849ZM77.7732 186.49V196H76.2176V192.3H74.3807L72.4646 196H70.7947L72.8514 192.027C72.3357 191.805 71.9432 191.462 71.6736 190.999C71.4041 190.536 71.2693 190 71.2693 189.391C71.2693 188.518 71.5506 187.817 72.1131 187.29C72.6756 186.757 73.4314 186.49 74.3807 186.49H77.7732ZM72.825 189.408C72.825 189.877 72.951 190.255 73.2029 190.542C73.4549 190.823 73.7947 190.964 74.2225 190.964H76.2176V187.809H74.3631C73.9002 187.809 73.5281 187.958 73.2469 188.257C72.9656 188.55 72.825 188.934 72.825 189.408ZM88.8785 194.849C89.3941 194.849 89.8072 194.69 90.1178 194.374C90.4283 194.052 90.5982 193.595 90.6275 193.003H92.0953C92.0602 193.917 91.735 194.676 91.1197 195.279C90.5104 195.877 89.7633 196.176 88.8785 196.176C87.7008 196.176 86.8014 195.807 86.1803 195.068C85.565 194.324 85.2574 193.22 85.2574 191.755V190.709C85.2574 189.273 85.565 188.184 86.1803 187.439C86.7955 186.689 87.692 186.314 88.8697 186.314C89.8424 186.314 90.6129 186.622 91.1813 187.237C91.7555 187.853 92.0602 188.693 92.0953 189.76H90.6275C90.5924 189.057 90.4225 188.529 90.1178 188.178C89.8189 187.826 89.4029 187.65 88.8697 187.65C88.1783 187.65 87.6656 187.879 87.3316 188.336C86.9977 188.787 86.8248 189.531 86.8131 190.568V191.781C86.8131 192.9 86.9771 193.691 87.3053 194.154C87.6393 194.617 88.1637 194.849 88.8785 194.849ZM99.4389 196V183.203H103.086C104.252 183.203 105.128 183.487 105.714 184.056C106.306 184.624 106.602 185.477 106.602 186.613C106.602 187.211 106.453 187.738 106.154 188.195C105.855 188.652 105.451 189.007 104.941 189.259C105.527 189.435 105.99 189.795 106.329 190.34C106.675 190.885 106.848 191.541 106.848 192.309C106.848 193.457 106.532 194.359 105.899 195.016C105.272 195.672 104.375 196 103.209 196H99.4389ZM101.047 190.015V194.62H103.245C103.854 194.62 104.337 194.421 104.695 194.022C105.052 193.618 105.231 193.053 105.231 192.326C105.231 190.785 104.58 190.015 103.28 190.015H101.047ZM101.047 188.661H103.113C103.669 188.661 104.118 188.474 104.457 188.099C104.803 187.724 104.976 187.226 104.976 186.604C104.976 185.901 104.821 185.392 104.51 185.075C104.2 184.753 103.725 184.592 103.086 184.592H101.047V188.661ZM114.541 196C114.447 195.795 114.38 195.449 114.339 194.963C113.788 195.771 113.085 196.176 112.229 196.176C111.368 196.176 110.694 195.936 110.208 195.455C109.727 194.969 109.487 194.286 109.487 193.407C109.487 192.44 109.815 191.673 110.471 191.104C111.128 190.536 112.027 190.246 113.17 190.234H114.312V189.224C114.312 188.655 114.186 188.251 113.934 188.011C113.682 187.771 113.299 187.65 112.783 187.65C112.314 187.65 111.933 187.791 111.64 188.072C111.347 188.348 111.201 188.699 111.201 189.127H109.645C109.645 188.641 109.789 188.178 110.076 187.738C110.363 187.293 110.75 186.944 111.236 186.692C111.722 186.44 112.264 186.314 112.862 186.314C113.835 186.314 114.573 186.558 115.077 187.044C115.587 187.524 115.847 188.228 115.859 189.153V193.952C115.865 194.685 115.965 195.32 116.158 195.859V196H114.541ZM112.467 194.761C112.847 194.761 113.211 194.655 113.556 194.444C113.902 194.233 114.154 193.97 114.312 193.653V191.386H113.433C112.695 191.397 112.112 191.564 111.684 191.887C111.257 192.203 111.043 192.648 111.043 193.223C111.043 193.762 111.151 194.154 111.368 194.4C111.585 194.641 111.951 194.761 112.467 194.761ZM123.543 193.847L126.092 186.49H128.026V196H126.479V189.443L124.079 196H123.016L120.564 189.285V196H119.017V186.49H121.021L123.543 193.847ZM136.254 186.49H137.801V196H136.254V189.065L132.809 196H131.254V186.49H132.809V193.434L136.254 186.49ZM145.76 196V186.49H148.951C150.04 186.49 150.872 186.713 151.447 187.158C152.021 187.604 152.308 188.251 152.308 189.101C152.308 189.54 152.194 189.936 151.965 190.287C151.737 190.639 151.403 190.908 150.963 191.096C151.45 191.225 151.839 191.485 152.132 191.878C152.431 192.271 152.58 192.745 152.58 193.302C152.58 194.181 152.305 194.852 151.754 195.314C151.209 195.771 150.436 196 149.434 196H145.76ZM147.307 191.825V194.69H149.452C150.5 194.69 151.025 194.21 151.025 193.249C151.025 192.3 150.495 191.825 149.434 191.825H147.307ZM147.307 190.524H148.933C150.146 190.524 150.752 190.079 150.752 189.188C150.752 188.292 150.181 187.832 149.038 187.809H147.307V190.524ZM163.642 187.035C164.644 187.035 165.441 187.434 166.032 188.23C166.624 189.021 166.92 190.082 166.92 191.412V191.544C166.92 192.95 166.592 194.075 165.936 194.919C165.279 195.757 164.412 196.176 163.334 196.176C162.256 196.176 161.389 195.751 160.733 194.901C160.076 194.052 159.748 192.909 159.748 191.474V190.674C159.748 188.711 160.056 187.141 160.671 185.963C161.286 184.779 162.189 184.05 163.378 183.774C164.064 183.616 164.527 183.429 164.767 183.212C165.013 182.995 165.136 182.708 165.136 182.351H166.393L166.384 182.693C166.314 183.854 165.757 184.589 164.714 184.899L163.642 185.198C162.868 185.409 162.274 185.781 161.858 186.314C161.447 186.848 161.181 187.545 161.058 188.406C161.773 187.492 162.634 187.035 163.642 187.035ZM163.325 188.371C162.704 188.371 162.212 188.635 161.849 189.162C161.491 189.689 161.313 190.483 161.313 191.544C161.313 192.575 161.491 193.387 161.849 193.979C162.206 194.564 162.701 194.857 163.334 194.857C163.967 194.857 164.465 194.562 164.828 193.97C165.192 193.378 165.373 192.502 165.373 191.342C165.373 190.428 165.189 189.704 164.82 189.171C164.456 188.638 163.958 188.371 163.325 188.371ZM176.046 186.49V196H174.49V187.835H171.985L171.836 191.061C171.754 192.848 171.513 194.116 171.115 194.866C170.716 195.61 170.078 195.988 169.199 196H168.68V194.567L169.076 194.532C169.509 194.474 169.814 194.184 169.99 193.662C170.171 193.135 170.292 192.101 170.35 190.56L170.5 186.49H176.046ZM184.257 186.49H185.804V196H184.257V189.065L180.812 196H179.256V186.49H180.812V193.434L184.257 186.49ZM195.351 191.869H194.446V196H192.899V191.869H191.994L190.007 196H188.056L190.789 191.043L188.293 186.49H190.165L192.011 190.428H192.899V186.49H194.446V190.428H195.316L197.188 186.49H199.06L196.555 191.052L199.288 196H197.329L195.351 191.869ZM206.304 196C206.211 195.795 206.143 195.449 206.102 194.963C205.552 195.771 204.848 196.176 203.993 196.176C203.132 196.176 202.458 195.936 201.971 195.455C201.491 194.969 201.251 194.286 201.251 193.407C201.251 192.44 201.579 191.673 202.235 191.104C202.891 190.536 203.791 190.246 204.933 190.234H206.076V189.224C206.076 188.655 205.95 188.251 205.698 188.011C205.446 187.771 205.062 187.65 204.547 187.65C204.078 187.65 203.697 187.791 203.404 188.072C203.111 188.348 202.965 188.699 202.965 189.127H201.409C201.409 188.641 201.553 188.178 201.84 187.738C202.127 187.293 202.513 186.944 203 186.692C203.486 186.44 204.028 186.314 204.626 186.314C205.598 186.314 206.337 186.558 206.841 187.044C207.35 187.524 207.611 188.228 207.623 189.153V193.952C207.629 194.685 207.728 195.32 207.922 195.859V196H206.304ZM204.23 194.761C204.611 194.761 204.974 194.655 205.32 194.444C205.666 194.233 205.918 193.97 206.076 193.653V191.386H205.197C204.459 191.397 203.876 191.564 203.448 191.887C203.02 192.203 202.806 192.648 202.806 193.223C202.806 193.762 202.915 194.154 203.132 194.4C203.348 194.641 203.715 194.761 204.23 194.761ZM215.781 186.49H217.328V196H215.781V189.065L212.336 196H210.78V186.49H212.336V193.434L215.781 186.49ZM216.696 183.027C216.696 183.736 216.452 184.308 215.966 184.741C215.486 185.169 214.853 185.383 214.068 185.383C213.282 185.383 212.647 185.166 212.16 184.732C211.674 184.299 211.431 183.73 211.431 183.027H212.758C212.758 183.438 212.869 183.76 213.092 183.994C213.315 184.223 213.64 184.337 214.068 184.337C214.478 184.337 214.797 184.223 215.026 183.994C215.26 183.766 215.377 183.443 215.377 183.027H216.696ZM222.121 186.49V194.673H224.801V186.49H226.348V194.673H229.038V186.49H230.593V196H220.556V186.49H222.121ZM237.091 196.176C235.907 196.176 234.999 195.824 234.366 195.121C233.733 194.412 233.411 193.375 233.399 192.01V190.858C233.399 189.44 233.707 188.33 234.322 187.527C234.943 186.719 235.808 186.314 236.915 186.314C238.028 186.314 238.86 186.669 239.411 187.378C239.962 188.087 240.243 189.191 240.255 190.691V191.711H234.946V191.931C234.946 192.95 235.137 193.691 235.518 194.154C235.904 194.617 236.458 194.849 237.179 194.849C237.636 194.849 238.037 194.764 238.383 194.594C238.734 194.418 239.062 194.143 239.367 193.768L240.176 194.752C239.502 195.701 238.474 196.176 237.091 196.176ZM236.915 187.65C236.271 187.65 235.793 187.873 235.482 188.318C235.172 188.758 234.996 189.443 234.955 190.375H238.699V190.164C238.658 189.262 238.494 188.617 238.207 188.23C237.926 187.844 237.495 187.65 236.915 187.65ZM246.128 196.176C244.945 196.176 244.037 195.824 243.404 195.121C242.771 194.412 242.449 193.375 242.437 192.01V190.858C242.437 189.44 242.745 188.33 243.36 187.527C243.981 186.719 244.845 186.314 245.953 186.314C247.066 186.314 247.898 186.669 248.449 187.378C248.999 188.087 249.281 189.191 249.292 190.691V191.711H243.984V191.931C243.984 192.95 244.174 193.691 244.555 194.154C244.942 194.617 245.496 194.849 246.216 194.849C246.673 194.849 247.075 194.764 247.42 194.594C247.772 194.418 248.1 194.143 248.405 193.768L249.213 194.752C248.539 195.701 247.511 196.176 246.128 196.176ZM245.953 187.65C245.308 187.65 244.83 187.873 244.52 188.318C244.209 188.758 244.034 189.443 243.993 190.375H247.737V190.164C247.696 189.262 247.532 188.617 247.245 188.23C246.963 187.844 246.533 187.65 245.953 187.65ZM1.30078 214V204.49H4.49121C5.58105 204.49 6.41309 204.713 6.9873 205.158C7.56152 205.604 7.84863 206.251 7.84863 207.101C7.84863 207.54 7.73438 207.936 7.50586 208.287C7.27734 208.639 6.94336 208.908 6.50391 209.096C6.99023 209.225 7.37988 209.485 7.67285 209.878C7.97168 210.271 8.12109 210.745 8.12109 211.302C8.12109 212.181 7.8457 212.852 7.29492 213.314C6.75 213.771 5.97656 214 4.97461 214H1.30078ZM2.84766 209.825V212.69H4.99219C6.04102 212.69 6.56543 212.21 6.56543 211.249C6.56543 210.3 6.03516 209.825 4.97461 209.825H2.84766ZM2.84766 208.524H4.47363C5.68652 208.524 6.29297 208.079 6.29297 207.188C6.29297 206.292 5.72168 205.832 4.5791 205.809H2.84766V208.524ZM17.7035 209.702C17.7035 211.208 17.4311 212.33 16.8861 213.068C16.3471 213.807 15.5824 214.176 14.5922 214.176C13.6371 214.176 12.9018 213.815 12.3861 213.095V217.656H10.8393V204.49H12.2455L12.3246 205.545C12.8461 204.725 13.5932 204.314 14.5658 204.314C15.6088 204.314 16.3881 204.678 16.9037 205.404C17.4193 206.131 17.6859 207.218 17.7035 208.665V209.702ZM16.1566 208.814C16.1566 207.748 15.9926 206.963 15.6645 206.459C15.3363 205.949 14.809 205.694 14.0824 205.694C13.3383 205.694 12.7729 206.066 12.3861 206.811V211.759C12.767 212.485 13.3383 212.849 14.1 212.849C14.8031 212.849 15.3188 212.597 15.6469 212.093C15.9809 211.583 16.1508 210.807 16.1566 209.764V208.814ZM23.7088 214.176C22.5252 214.176 21.617 213.824 20.9842 213.121C20.3514 212.412 20.0291 211.375 20.0174 210.01V208.858C20.0174 207.44 20.325 206.33 20.9402 205.527C21.5613 204.719 22.4256 204.314 23.533 204.314C24.6463 204.314 25.4783 204.669 26.0291 205.378C26.5799 206.087 26.8611 207.191 26.8729 208.691V209.711H21.5643V209.931C21.5643 210.95 21.7547 211.691 22.1355 212.154C22.5223 212.617 23.076 212.849 23.7967 212.849C24.2537 212.849 24.6551 212.764 25.0008 212.594C25.3523 212.418 25.6805 212.143 25.9852 211.768L26.7938 212.752C26.1199 213.701 25.0916 214.176 23.7088 214.176ZM23.533 205.65C22.8885 205.65 22.4109 205.873 22.1004 206.318C21.7898 206.758 21.6141 207.443 21.573 208.375H25.3172V208.164C25.2762 207.262 25.1121 206.617 24.825 206.23C24.5438 205.844 24.1131 205.65 23.533 205.65ZM34.0119 211.847L36.5607 204.49H38.4943V214H36.9475V207.443L34.548 214H33.4846L31.0324 207.285V214H29.4855V204.49H31.4895L34.0119 211.847ZM47.7955 204.49V214H46.2398V210.3H44.4029L42.4869 214H40.817L42.8736 210.027C42.358 209.805 41.9654 209.462 41.6959 208.999C41.4264 208.536 41.2916 208 41.2916 207.391C41.2916 206.518 41.5729 205.817 42.1354 205.29C42.6979 204.757 43.4537 204.49 44.4029 204.49H47.7955ZM42.8473 207.408C42.8473 207.877 42.9732 208.255 43.2252 208.542C43.4771 208.823 43.817 208.964 44.2447 208.964H46.2398V205.809H44.3854C43.9225 205.809 43.5504 205.958 43.2691 206.257C42.9879 206.55 42.8473 206.934 42.8473 207.408Z" fill="#00B2A0"/>
</g>
<defs>
<clipPath id="clip0_59_6">
<rect width="569" height="317" fill="white"/>
</clipPath>
<clipPath id="clip1_59_6">
<rect width="569" height="38" fill="white"/>
</clipPath>
</defs>
</svg>
